<svg width="60" height="60" viewBox="0 0 60 60" fill="none" xmlns="http://www.w3.org/2000/svg">
<g clip-path="url(#clip0_366_481)">
<path d="M-0.0205078 -0.0205078H50.3967C52.9437 -0.0205078 55.3863 0.991264 57.1873 2.79223C58.9882 4.59319 60 7.03582 60 9.58277V50.3967C60 52.9437 58.9882 55.3863 57.1873 57.1873C55.3863 58.9882 52.9437 60 50.3967 60H9.58277C7.03582 60 4.59319 58.9882 2.79223 57.1873C0.991263 55.3863 -0.0205078 52.9437 -0.0205078 50.3967V-0.0205078Z" fill="#663399"/>
<path d="M15.1648 49.0163V38.9328C15.1648 34.9114 17.7457 32.7507 21.647 32.7507C25.4883 32.6907 27.8891 35.2115 27.7691 39.473H23.3276C23.4476 37.8524 22.7274 36.652 21.527 36.712C20.0265 36.712 19.6063 37.7324 19.6063 39.6531V48.416C19.6063 50.2767 20.2065 51.177 21.527 51.237C22.9074 51.237 23.4476 49.8565 23.3276 48.296H27.7691C28.0092 52.6775 25.2482 55.2584 21.3469 55.1984C17.5656 55.1984 15.1648 53.0976 15.1648 49.0163ZM29.3897 48.296H33.5311C33.5911 50.2167 34.1913 51.4171 35.5117 51.4171C36.8322 51.4171 37.3124 50.6368 37.3124 48.8362C37.3124 47.3357 36.6521 46.4954 35.0316 45.7151L33.471 44.9949C30.7101 43.6744 29.5697 42.0539 29.5697 38.8128C29.5697 35.2115 31.8505 32.6907 35.5718 32.6907C39.293 32.6907 41.2737 35.2716 41.3337 39.473H37.3124C37.3124 37.7324 36.9522 36.532 35.6318 36.532C34.4314 36.532 33.8312 37.1322 33.8312 38.6327C33.8312 40.1332 34.3714 40.7334 35.8118 41.3336L37.2523 41.9939C40.3134 43.4343 41.6338 45.295 41.6338 48.7762C41.6338 52.9176 39.293 55.1984 35.4517 55.1984C31.6104 55.1984 29.4497 52.5575 29.3897 48.296ZM42.9543 48.296H47.1557C47.1557 50.2167 47.8159 51.4171 49.0764 51.4171C50.3368 51.4171 50.877 50.6368 50.877 48.8362C50.877 47.3357 50.2768 46.4954 48.5962 45.7151L47.0357 44.9949C44.2747 43.6744 43.1944 42.0539 43.1944 38.8128C43.1944 35.2115 45.4151 32.6907 49.1964 32.6907C52.9777 32.6907 54.8383 35.2716 54.9584 39.473H50.937C50.877 37.7324 50.5169 36.532 49.1964 36.532C47.996 36.532 47.4558 37.1322 47.4558 38.6327C47.4558 40.1332 47.936 40.7334 49.3765 41.3336L50.877 41.9939C53.878 43.4343 55.1985 45.295 55.1985 48.7762C55.1985 52.9176 52.8577 55.1984 49.0164 55.1984C45.175 55.1984 43.0143 52.5575 42.9543 48.296Z" fill="white"/>
</g>
<defs>
<clipPath id="clip0_366_481">
<rect width="60" height="60" fill="white"/>
</clipPath>
</defs>
</svg>
