<svg width="32" height="32" viewBox="0 0 32 32" fill="none" xmlns="http://www.w3.org/2000/svg">
<path d="M10.4001 20C10.1879 20 9.98444 19.9157 9.83441 19.7657C9.68438 19.6157 9.6001 19.4122 9.6001 19.2C9.6001 18.9878 9.68438 18.7843 9.83441 18.6343C9.98444 18.4843 10.1879 18.4 10.4001 18.4H21.6001C21.8123 18.4 22.0158 18.4843 22.1658 18.6343C22.3158 18.7843 22.4001 18.9878 22.4001 19.2C22.4001 19.4122 22.3158 19.6157 22.1658 19.7657C22.0158 19.9157 21.8123 20 21.6001 20H10.4001ZM10.4001 24C10.1879 24 9.98444 23.9157 9.83441 23.7657C9.68438 23.6157 9.6001 23.4122 9.6001 23.2C9.6001 22.9878 9.68438 22.7843 9.83441 22.6343C9.98444 22.4843 10.1879 22.4 10.4001 22.4H21.6001C21.8123 22.4 22.0158 22.4843 22.1658 22.6343C22.3158 22.7843 22.4001 22.9878 22.4001 23.2C22.4001 23.4122 22.3158 23.6157 22.1658 23.7657C22.0158 23.9157 21.8123 24 21.6001 24H10.4001Z" fill="black"/>
<path fill-rule="evenodd" clip-rule="evenodd" d="M17.8961 1.6H7.20005C6.56353 1.6 5.95308 1.85286 5.50299 2.30294C5.05291 2.75303 4.80005 3.36348 4.80005 4V28C4.80005 28.6365 5.05291 29.247 5.50299 29.6971C5.95308 30.1471 6.56353 30.4 7.20005 30.4H24.8001C25.4366 30.4 26.047 30.1471 26.4971 29.6971C26.9472 29.247 27.2001 28.6365 27.2001 28V11.5232C27.1999 10.9224 26.9744 10.3434 26.5681 9.9008L19.6657 2.3776C19.4407 2.13239 19.1672 1.93664 18.8626 1.80277C18.558 1.66891 18.2288 1.59986 17.8961 1.6ZM6.40005 4C6.40005 3.78783 6.48433 3.58434 6.63436 3.43431C6.78439 3.28428 6.98788 3.2 7.20005 3.2H17.8961C18.0071 3.19988 18.1169 3.22286 18.2185 3.26748C18.3202 3.31211 18.4114 3.3774 18.4865 3.4592L25.3889 10.9824C25.5245 11.1299 25.5999 11.3228 25.6 11.5232V28C25.6 28.2122 25.5158 28.4157 25.3657 28.5657C25.2157 28.7157 25.0122 28.8 24.8001 28.8H7.20005C6.98788 28.8 6.78439 28.7157 6.63436 28.5657C6.48433 28.4157 6.40005 28.2122 6.40005 28V4Z" fill="black"/>
<path d="M18.4001 3.36V10.88H25.9201" stroke="black" stroke-width="1.2" stroke-linecap="round" stroke-linejoin="round"/>
<path d="M13.0146 9.8128C13.243 9.8198 13.4706 9.78084 13.6838 9.69823C13.8969 9.61562 14.0913 9.49106 14.2554 9.33191C14.4195 9.17276 14.5499 8.98229 14.639 8.77177C14.7281 8.56126 14.774 8.33499 14.774 8.1064C14.774 7.87781 14.7281 7.65155 14.639 7.44103C14.5499 7.23052 14.4195 7.04004 14.2554 6.88089C14.0913 6.72175 13.8969 6.59718 13.6838 6.51457C13.4706 6.43196 13.243 6.393 13.0146 6.4C12.571 6.41358 12.1502 6.59932 11.8413 6.91785C11.5324 7.23638 11.3596 7.66267 11.3596 8.1064C11.3596 8.55013 11.5324 8.97642 11.8413 9.29495C12.1502 9.61348 12.571 9.79922 13.0146 9.8128Z" fill="black"/>
<path fill-rule="evenodd" clip-rule="evenodd" d="M16.4257 13.5104C16.4257 11.696 14.8977 10.3824 13.0129 10.3824C11.1281 10.3824 9.6001 11.6944 9.6001 13.5104V14.3648C9.60052 14.5156 9.66072 14.6601 9.76749 14.7665C9.87427 14.873 10.0189 14.9328 10.1697 14.9328H15.8577C16.0082 14.9324 16.1524 14.8724 16.2589 14.766C16.3653 14.6595 16.4253 14.5153 16.4257 14.3648V13.5104Z" fill="black"/>
</svg>
