<svg width="60" height="60" viewBox="0 0 60 60" fill="none" xmlns="http://www.w3.org/2000/svg">
<path d="M8.06045 54.377L3.54639 3.75H53.1468L48.6267 54.369L28.3165 60L8.06045 54.377Z" fill="#E44F26"/>
<path d="M28.3467 55.6969L44.7596 51.1467L48.6208 7.89041H28.3467V55.6969Z" fill="#F1662A"/>
<path d="M28.3465 26.6658H20.13L19.5635 20.3076H28.3465V14.098H12.7773L12.926 15.7654L14.4508 32.8754H28.3465V26.6658ZM28.3465 42.7915L28.3184 42.7996L21.4037 40.9333L20.9617 35.9813H14.728L15.5979 45.7286L28.3184 49.2603L28.3465 49.2522V42.7915Z" fill="#EBEBEB"/>
<path d="M28.3245 26.6658V32.8754H35.9704L35.2512 40.9292L28.3245 42.7975V49.2583L41.055 45.7286L41.1475 44.6799L42.6059 28.3333L42.7586 26.6658H28.3245ZM28.3245 14.098V20.3076H43.3231L43.4477 18.9134L43.7309 15.7654L43.8796 14.098H28.3245Z" fill="white"/>
</svg>
