<svg width="32" height="32" viewBox="0 0 32 32" fill="none" xmlns="http://www.w3.org/2000/svg">
<path fill-rule="evenodd" clip-rule="evenodd" d="M15.9999 28.632C19.3501 28.632 22.5631 27.3011 24.9321 24.9322C27.3011 22.5632 28.6319 19.3502 28.6319 16C28.6319 12.6498 27.3011 9.43678 24.9321 7.06782C22.5631 4.69886 19.3501 3.368 15.9999 3.368C12.6497 3.368 9.43671 4.69886 7.06775 7.06782C4.69879 9.43678 3.36792 12.6498 3.36792 16C3.36792 19.3502 4.69879 22.5632 7.06775 24.9322C9.43671 27.3011 12.6497 28.632 15.9999 28.632ZM21.0613 6.528C21.2355 6.77955 21.3999 7.04 21.5546 7.30933C22.2399 8.5 22.7813 9.90933 23.1399 11.464C23.6324 11.5929 24.0968 11.7342 24.5333 11.888C25.1333 12.1013 25.6933 12.3413 26.1906 12.6107C25.3196 10.0029 23.4846 7.82676 21.0613 6.528ZM26.4119 18.6347C25.8599 18.9547 25.2253 19.236 24.5319 19.48C24.1381 19.6196 23.7213 19.7484 23.2813 19.8667C22.9306 21.6867 22.3373 23.332 21.5546 24.6907C21.4015 24.9581 21.2369 25.2188 21.0613 25.472C22.3793 24.7664 23.5358 23.7938 24.457 22.6164C25.3783 21.4389 26.0441 20.0837 26.4119 18.6347ZM10.9386 25.4707C10.7629 25.2175 10.5983 24.9568 10.4453 24.6893C9.66259 23.3293 9.06925 21.6853 8.71859 19.8653C8.27859 19.7471 7.86125 19.6182 7.46659 19.4787C6.81613 19.2547 6.1877 18.9713 5.58925 18.632C5.95694 20.0809 6.62251 21.4374 7.54353 22.6148C8.46455 23.7923 9.62081 24.7649 10.9386 25.4707ZM5.80925 12.6107C6.34274 12.3284 6.89675 12.0869 7.46659 11.888C7.90392 11.7342 8.36881 11.5929 8.86125 11.464C9.21992 9.90933 9.75992 8.5 10.4453 7.30933C10.6008 7.04 10.7653 6.77955 10.9386 6.528C8.51529 7.82676 6.68023 10.0029 5.80925 12.6107ZM19.9133 8.256C20.3733 9.05466 20.7666 9.98933 21.0693 11.0293C19.7919 10.8173 18.4026 10.6853 16.9479 10.644V5.48C18.0039 5.82533 19.0439 6.74666 19.9133 8.256ZM21.5159 13.0347C20.0093 12.7454 18.4815 12.5804 16.9479 12.5413V18.828C18.5129 18.7875 20.0717 18.6157 21.6079 18.3147C21.7004 17.5698 21.747 16.7982 21.7479 16C21.7479 14.968 21.6666 13.9733 21.5159 13.0347ZM15.0533 5.48V10.644C13.5986 10.684 12.2093 10.8173 10.9319 11.028C11.2346 9.98933 11.6266 9.05466 12.0866 8.25466C12.9559 6.74666 13.9973 5.824 15.0533 5.48ZM15.0533 12.5413C13.5192 12.5807 11.9909 12.7462 10.4839 13.036C10.2085 14.7832 10.1775 16.5602 10.3919 18.316C11.7706 18.596 13.3519 18.78 15.0533 18.8293V12.5413ZM8.09859 13.676C8.22925 13.6289 8.36348 13.5836 8.50125 13.54C8.33357 14.9571 8.31123 16.3877 8.43459 17.8093C8.31992 17.772 8.20792 17.7338 8.09859 17.6947C7.10525 17.344 6.36925 16.948 5.89859 16.556C5.42392 16.16 5.32525 15.8613 5.32525 15.6853C5.32525 15.5107 5.42392 15.212 5.89859 14.8147C6.36925 14.4227 7.10525 14.0267 8.09859 13.676ZM12.0866 23.7453C11.5306 22.7813 11.0733 21.6173 10.7546 20.312C12.0799 20.5387 13.5306 20.6827 15.0519 20.7253V26.5213C13.9973 26.176 12.9559 25.2547 12.0866 23.7453ZM16.9479 26.5213V20.7253C18.3883 20.6887 19.8243 20.5506 21.2453 20.312C20.9253 21.6173 20.4693 22.7813 19.9119 23.7453C19.0439 25.2547 18.0039 26.176 16.9479 26.5213ZM23.6399 16C23.6399 16.6133 23.6146 17.216 23.5639 17.808C23.6786 17.7707 23.7906 17.7324 23.8999 17.6933C24.8933 17.3427 25.6293 16.9467 26.0999 16.5547C26.5746 16.1587 26.6733 15.86 26.6733 15.684C26.6733 15.5093 26.5746 15.2107 26.0999 14.8133C25.6293 14.4213 24.8933 14.0253 23.8999 13.6747C23.7664 13.6272 23.6322 13.5819 23.4973 13.5387C23.5924 14.3387 23.6404 15.1591 23.6413 16" fill="black"/>
</svg>
