<svg width="32" height="32" viewBox="0 0 32 32" fill="none" xmlns="http://www.w3.org/2000/svg">
<path fill-rule="evenodd" clip-rule="evenodd" d="M14.5868 10.5867C14.9618 10.2121 15.4701 10.0018 16.0001 10.0018C16.5301 10.0018 17.0384 10.2121 17.4134 10.5867L24.9574 18.128C25.1431 18.3138 25.2904 18.5343 25.3908 18.777C25.4913 19.0197 25.543 19.2798 25.5429 19.5425C25.5429 19.8051 25.4911 20.0652 25.3905 20.3079C25.2899 20.5505 25.1425 20.771 24.9568 20.9567C24.771 21.1424 24.5504 21.2896 24.3077 21.3901C24.0651 21.4906 23.8049 21.5422 23.5423 21.5422C23.2796 21.5421 23.0195 21.4903 22.7769 21.3897C22.5342 21.2892 22.3138 21.1418 22.1281 20.956L16.0001 14.8293L9.87208 20.9573C9.68768 21.1484 9.46706 21.3009 9.2231 21.4058C8.97915 21.5108 8.71673 21.5661 8.45118 21.5685C8.18562 21.5709 7.92224 21.5204 7.6764 21.42C7.43056 21.3196 7.20719 21.1712 7.01932 20.9835C6.83144 20.7958 6.68283 20.5725 6.58215 20.3268C6.48148 20.081 6.43075 19.8177 6.43293 19.5521C6.43511 19.2866 6.49016 19.0241 6.59486 18.7801C6.69956 18.536 6.85182 18.3152 7.04275 18.1307L14.5868 10.5867Z" fill="black"/>
</svg>
